Coordinates
version=1
nRows=15
nColumns=34
inDegrees=yes

Units are S.I. units (second, meters, Newtons, ...)
If the header above contains a line with 'inDegrees', this indicates whether rotational values are in degrees (yes) or radians (no).

endheader
time	pelvis_tilt	pelvis_list	pelvis_rotation	pelvis_tx	pelvis_ty	pelvis_tz	hip_flexion_r	hip_adduction_r	hip_rotation_r	knee_angle_r	ankle_angle_r	subtalar_angle_r	mtp_angle_r	hip_flexion_l	hip_adduction_l	hip_rotation_l	knee_angle_l	ankle_angle_l	subtalar_angle_l	mtp_angle_l	lumbar_extension	lumbar_bending	lumbar_rotation	arm_flex_r	arm_add_r	arm_rot_r	elbow_flex_r	pro_sup_r	arm_flex_l	arm_add_l	arm_rot_l	elbow_flex_l	pro_sup_l
      2.50833330	     18.80571512	      1.59317579	     14.61465300	      1.93515183	      0.68164006	     -0.86740947	     59.10531073	    -13.07164749	      1.62659334	     95.59565838	     18.48875815	     -4.55647354	      0.00000000	     62.42236684	     13.26028954	      2.25846493	     95.48848130	      1.91591402	    -23.09825030	      0.00000000	    -40.40625436	     -0.81265341	     27.97644278	     52.26347229	     -5.54465801	     81.00693712	    109.66458152	     71.34567024	     50.71421024	     -2.37765178	     70.95467046	    104.45447974	     67.45503436
      2.51666670	     18.72533863	      1.61183527	     14.45877005	      1.93464943	      0.68112966	     -0.86782870	     59.25425478	    -12.96984133	      1.74111050	     95.66221701	     17.77426030	     -5.03048918	      0.00000000	     62.54318594	     13.20325163	      2.17583330	     95.60078669	      2.18403424	    -23.09227155	      0.00000000	    -40.25336544	     -0.87209969	     27.66158987	     52.26961761	     -5.44193371	     81.15726049	    109.47039609	     71.52791207	     50.98256016	     -2.17083950	     70.70764571	    103.62883786	     66.93326201
      2.52500000	     18.72421662	      1.53501811	     14.29316177	      1.93453915	      0.68037290	     -0.86765978	     59.38522943	    -12.80632796	      1.74046033	     95.64166375	     17.54219235	     -4.94505402	      0.00000000	     62.52734204	     13.07069591	      2.16832249	     95.66751755	      2.27369046	    -23.09585378	      0.00000000	    -40.25043088	     -0.85676208	     27.39154774	     52.16465611	     -5.53082370	     81.16828433	    109.46117179	     71.57474150	     51.20539390	     -2.09243195	     70.55669858	    103.54371103	     66.80608287
      2.53333330	     18.66288347	      1.50699882	     14.20705608	      1.93420626	      0.68078011	     -0.86733853	     59.54214843	    -12.68699024	      1.80059519	     95.54160906	     17.23872537	     -4.92327459	      0.00000000	     62.54823649	     12.97424434	      2.12933995	     95.66541613	      2.39035193	    -23.10167956	      0.00000000	    -40.28339853	     -0.81321509	     27.10868263	     52.04203577	     -5.58693351	     81.21601204	    109.50477859	     71.63691503	     51.49275667	     -2.02681771	     70.24075420	    103.30961160	     66.65323241
      2.54166670	     18.61221070	      1.48699837	     14.13590537	      1.93458097	      0.68052176	     -0.86707895	     59.63975004	    -12.59634396	      1.85324575	     95.55954309	     17.20401456	     -4.94104501	      0.00000000	     62.60909253	     12.86582855	      2.10849110	     95.66352174	      2.39194689	    -23.07994539	      0.00000000	    -40.42668157	     -0.73255994	     26.89667356	     51.97848735	     -5.68727760	     81.23782616	    109.50504650	     71.65608500	     51.53370219	     -1.93369401	     70.16024368	    103.24898603	     66.60994392
      2.55000000	     18.53207526	      1.47110037	     13.82068747	      1.93486472	      0.68128493	     -0.86694445	     59.68970897	    -12.25307891	      2.03810862	     95.44750409	     17.12663475	     -5.24770862	      0.00000000	     62.68326667	     12.57454477	      1.95782744	     95.64842390	      2.64450981	    -22.90850361	      0.00000000	    -40.30322776	     -0.90754161	     26.72082728	     51.89292437	     -5.82427925	     81.32948862	    109.59241806	     71.95310179	     51.42789130	     -1.50117436	     68.89187383	    102.47877341	     65.99825268
      2.55833330	     18.48392697	      1.41897950	     13.77315166	      1.93460586	      0.68030291	     -0.86702918	     59.78968882	    -12.20439409	      2.02833396	     95.50560649	     17.09057567	     -5.22801464	      0.00000000	     62.79515719	     12.49016020	      1.96971529	     95.68802288	      2.58155253	    -22.80434526	      0.00000000	    -40.29131402	     -0.82575212	     26.49524411	     51.94343208	     -6.04798967	     81.25307293	    109.54063693	     72.01708100	     51.72634316	     -1.34104711	     68.59338641	    102.52001339	     65.87544636
      2.56666670	     18.47150830	      1.38961418	     13.70695938	      1.93442466	      0.68025436	     -0.86717609	     59.84310811	    -12.12271496	      2.08371905	     95.53190909	     17.11795177	     -5.22396457	      0.00000000	     62.88524044	     12.42297958	      1.90363312	     95.73907491	      2.59660256	    -22.79398803	      0.00000000	    -40.34526554	     -0.69030521	     26.27767154	     51.99630281	     -6.22398818	     81.19352603	    109.52331549	     72.03703310	     51.81696033	     -1.21923084	     68.49273815	    102.51963237	     65.83750164
      2.57500000	     18.51319049	      1.35564803	     13.58196171	      1.93686324	      0.67958278	     -0.86789172	     59.84914907	    -12.05599975	      2.10442334	     95.68589218	     17.22203645	     -5.22635559	      0.00000000	     62.87105049	     12.36060433	      1.90197167	     95.94803742	      2.66840028	    -22.77494042	      0.00000000	    -40.22573161	     -0.65241796	     26.08189723	     52.03067148	     -6.37779738	     81.17402164	    109.52824235	     72.06589994	     51.76999500	     -1.08466062	     68.46486482	    102.55614835	     65.79524017
      2.58333330	     18.48541063	      1.32372313	     13.52245257	      1.93605552	      0.67984964	     -0.86715064	     59.87560198	    -11.94900985	      2.10530470	     95.74065282	     17.23992816	     -5.17572540	      0.00000000	     62.91936339	     12.30155677	      1.87389427	     96.04258209	      2.82459145	    -22.73753727	      0.00000000	    -40.17020769	     -0.60067781	     25.81601329	     52.04050591	     -6.64288985	     81.19776894	    109.53187818	     72.10049833	     51.72928928	     -0.96926109	     68.43785584	    102.58938738	     65.75264566
      2.59166670	     18.27222370	      1.12290041	     13.45544663	      1.93684370	      0.67888486	     -0.86757635	     60.22287274	    -11.86312030	      2.01111383	     95.82462115	     17.41837730	     -4.80712553	      0.00000000	     63.21886492	     12.16820867	      2.00369168	     96.21855583	      3.81928055	    -21.73628269	      0.00000000	    -39.70796475	     -0.49820691	     25.73813027	     52.12542673	     -7.16538521	     81.73490181	    110.04824758	     72.60188716	     51.41541187	     -0.77389853	     68.18503703	    102.57995110	     65.20781046
      2.60000000	     18.25257373	      1.09943051	     13.44922833	      1.93867928	      0.67898161	     -0.86695522	     60.20604512	    -11.80159062	      1.97666602	     95.88722399	     17.49836935	     -4.86001519	      0.00000000	     63.18441822	     12.09546242	      2.04805325	     96.27813642	      3.93428675	    -21.74095726	      0.00000000	    -39.56392824	     -0.45484476	     25.42572966	     52.05374802	     -7.37801986	     81.75381769	    109.97653956	     72.67984590	     51.52726787	     -0.68602810	     68.19143697	    102.63473039	     65.13012668
      2.60833330	     18.21217267	      1.06939906	     13.41617655	      1.93855604	      0.67886432	     -0.86696043	     60.24302006	    -11.72606749	      1.98396820	     95.94638115	     17.50342510	     -4.86971976	      0.00000000	     63.20737234	     12.02534191	      2.00831428	     96.31081109	      3.97758388	    -21.72590220	      0.00000000	    -39.47209464	     -0.32433429	     25.14469249	     52.03927238	     -7.50868269	     81.75723536	    109.97359181	     72.71789298	     51.73233650	     -0.53555190	     68.09556164	    102.68781885	     65.09538953
      2.61666670	     18.19661244	      1.01500974	     13.38070962	      1.93933747	      0.67865369	     -0.86711081	     60.27894951	    -11.66832806	      1.98340490	     96.06264402	     17.51898873	     -4.88890288	      0.00000000	     63.26346675	     11.95887400	      2.03357896	     96.34946620	      4.02528912	    -21.72905623	      0.00000000	    -39.42078903	     -0.26755428	     24.86599328	     51.95718489	     -7.63098521	     81.79569345	    109.97302442	     72.75781985	     51.83043456	     -0.42525138	     68.07107292	    102.76848619	     65.06654866
      2.62500000	     18.13248552	      0.96425933	     13.32113017	      1.93945338	      0.67922636	     -0.86701637	     60.28195841	    -11.57929008	      1.96159372	     96.06332904	     17.53923795	     -4.90999341	      0.00000000	     63.25579503	     11.89513620	      2.04941323	     96.25131965	      4.01760182	    -21.68948743	      0.00000000	    -39.32422972	     -0.21231653	     24.57362147	     51.81718550	     -7.76320193	     81.85081855	    109.97803051	     72.80304268	     51.90830144	     -0.34108675	     68.07730424	    102.91163386	     65.04220377
